<svg width="126" height="21" viewBox="0 0 126 21" fill="none" xmlns="http://www.w3.org/2000/svg">
    <g clip-path="url(#clip0_1_1048)">
      <path d="M1.96209 16.9277V3.41682C1.96209 2.98266 1.96209 2.65271 1.93677 2.47471C1.91172 2.28425 1.85611 2.0994 1.77221 1.92767C1.62453 1.5543 1.25321 1.35894 0.654029 1.33723C0.232077 1.33723 0 1.15054 0 0.833608C0 0.516674 0.223637 0.399452 0.67935 0.399452H6.76391C8.09906 0.3838 9.42887 0.574046 10.7092 0.963854C11.8159 1.29453 12.8523 1.83652 13.7642 2.56153C14.5877 3.23015 15.2625 4.07249 15.7431 5.03187C16.2199 6.00638 16.463 7.08417 16.452 8.17512C16.452 10.2012 15.7417 11.7598 14.3212 12.851C12.9006 13.9421 10.8907 14.4892 8.29144 14.4921C7.87226 14.4921 7.45029 14.4791 7.02552 14.453C6.60361 14.4226 6.24072 14.3792 5.93268 14.3271C5.73437 14.288 5.5487 14.2576 5.3757 14.2403C5.2027 14.2229 5.08034 14.2142 5.00439 14.2142C4.69636 14.2142 4.54023 14.3922 4.54023 14.7439V17.5529C4.54023 17.987 4.54024 18.3169 4.56977 18.495C4.58731 18.6735 4.63291 18.848 4.7048 19.0116C4.78734 19.2058 4.93802 19.3608 5.12675 19.4458C5.36829 19.5401 5.6208 19.6014 5.87783 19.6281C6.29978 19.6281 6.50656 19.8148 6.50656 20.1317C6.50656 20.4486 6.2787 20.5658 5.82298 20.5658H0.654029C0.232077 20.5658 0 20.4183 0 20.1317C0 19.8451 0.206756 19.6455 0.624492 19.6281C0.877838 19.6039 1.1265 19.5426 1.36291 19.4458C1.55026 19.3587 1.7003 19.2044 1.78487 19.0116C1.87377 18.8624 1.92993 18.6949 1.94943 18.521C1.94943 18.343 1.97474 18.0218 1.97474 17.5529L1.96209 16.9277ZM6.4939 1.43273C5.96842 1.38334 5.43989 1.484 4.9664 1.72362C4.81698 1.85003 4.70026 2.01251 4.62664 2.19658C4.55302 2.38065 4.52478 2.5806 4.54445 2.77861V11.6657C4.53453 11.931 4.59732 12.1938 4.72566 12.4241C4.85399 12.6544 5.0427 12.843 5.27022 12.9682C6.01138 13.305 6.82029 13.4539 7.62892 13.4024C8.41006 13.421 9.19024 13.3349 9.94967 13.1462C10.5516 12.9787 11.1162 12.6927 11.6122 12.3039C12.9259 11.2967 13.5813 9.82782 13.5785 7.89727C13.5922 6.97917 13.4242 6.06779 13.0848 5.21855C12.77 4.43706 12.285 3.74041 11.667 3.18238C11.0126 2.60042 10.2525 2.15774 9.43072 1.87992C8.48235 1.56556 7.49006 1.41446 6.4939 1.43273Z" fill="#00284F"/>
      <path d="M19.5618 15.356C19.3424 15.4298 19.2327 15.5123 19.2327 15.6078C19.2742 15.9212 19.3669 16.225 19.5069 16.5065C19.9133 17.4733 20.563 18.3111 21.3889 18.9334C22.1499 19.5032 23.0681 19.8075 24.0092 19.8018C24.6712 19.7993 25.3237 19.6403 25.9165 19.3372C26.5489 19.0185 27.115 18.5761 27.5832 18.0347C27.6407 17.952 27.7157 17.8837 27.8026 17.835C27.8612 17.8026 27.926 17.7833 27.9925 17.7786C28.2287 17.7786 28.3469 17.9132 28.3469 18.1737C28.3371 18.3141 28.2905 18.4492 28.2119 18.5644C27.6451 19.3454 26.8863 19.9568 26.0135 20.3358C25.0916 20.7628 24.0919 20.9833 23.0809 20.9826C22.1823 20.992 21.2911 20.8148 20.4606 20.4617C19.6798 20.1313 18.9723 19.6412 18.3811 19.021C17.79 18.4008 17.3275 17.6635 17.0216 16.8539C16.387 15.1384 16.369 13.246 16.971 11.5181C17.2379 10.7511 17.6495 10.0458 18.182 9.44285C18.7047 8.8603 19.3361 8.39226 20.0386 8.06656C20.7716 7.7263 21.5679 7.55449 22.372 7.56296C23.2537 7.55338 24.1237 7.76974 24.9037 8.1925C25.702 8.63599 26.3962 9.25398 26.9376 10.0029C27.3183 10.5198 27.6463 11.0755 27.9165 11.6614C28.0272 11.8982 28.0931 12.1546 28.1106 12.4168C28.1139 12.4936 28.0914 12.5692 28.0468 12.6308C28.0022 12.6925 27.9383 12.7366 27.8659 12.7555L19.5618 15.356ZM19.0977 14.4573C19.1842 14.4459 19.2675 14.4164 19.3424 14.3705L25.292 12.5774C25.5071 12.521 25.6169 12.4168 25.6169 12.2692C25.6078 12.1216 25.5809 11.9758 25.5367 11.835C25.4818 11.6396 25.4101 11.4009 25.3173 11.1751C25.0997 10.589 24.7547 10.0618 24.3088 9.63389C23.9886 9.30858 23.609 9.05173 23.1919 8.87808C22.7747 8.7045 22.3283 8.61755 21.8783 8.62228C21.439 8.60836 21.0032 8.70752 20.6105 8.9107C20.2178 9.11387 19.8805 9.41463 19.6293 9.78581C19.0232 10.7275 18.7273 11.8447 18.7854 12.9725C18.7789 13.3303 18.8058 13.688 18.8656 14.0405C18.9331 14.3184 19.0259 14.4573 19.0977 14.4573Z" fill="#00284F"/>
      <path d="M32.9041 8.19244L32.9294 10.2416C32.9294 10.3719 32.9294 10.437 32.9843 10.437C33.0887 10.3275 33.1793 10.205 33.2543 10.0723C33.4437 9.72439 33.6763 9.40335 33.9463 9.11723C34.2237 8.81929 34.5338 8.55561 34.8704 8.33137C35.1935 8.11356 35.5405 7.93578 35.9042 7.80171C36.2523 7.67387 36.619 7.60779 36.9886 7.60634C37.3016 7.60523 37.6131 7.65208 37.9127 7.74527C38.1902 7.83419 38.4565 7.95658 38.706 8.10995C38.8326 8.16639 38.8959 8.23588 38.8959 8.30965C38.8971 8.40047 38.8689 8.48906 38.8157 8.56151C38.6342 8.99562 38.4739 9.4298 38.3388 9.83792C38.2354 10.1366 38.1481 10.441 38.0772 10.7496C38.0659 10.9173 38.0089 11.0783 37.9127 11.2141C37.8747 11.2563 37.8282 11.2894 37.7764 11.3112C37.7247 11.3329 37.6689 11.3428 37.6131 11.3401C37.4148 11.3401 37.3051 11.1534 37.2882 10.78C37.2855 10.5964 37.2472 10.4153 37.1752 10.2473C37.1033 10.0793 36.9993 9.92789 36.8695 9.80196C36.7396 9.67602 36.5866 9.57824 36.4193 9.51432C36.252 9.45041 36.074 9.42166 35.8958 9.4298C35.4872 9.42803 35.0844 9.52935 34.7227 9.72505C34.3563 9.9252 34.0355 10.2035 33.7818 10.5412C33.5081 10.9046 33.2957 11.3126 33.1531 11.7482C32.9955 12.2217 32.917 12.7194 32.921 13.22V18.1042C32.88 18.5161 32.9816 18.9297 33.2079 19.272C33.5204 19.541 33.9071 19.702 34.3134 19.7323C34.6763 19.7887 34.8577 19.9406 34.8577 20.1664C34.8577 20.3921 34.6679 20.5572 34.2839 20.5572H29.385C28.9841 20.5572 28.7816 20.4182 28.7816 20.123C28.7816 19.919 28.9757 19.78 29.3554 19.6888C29.5915 19.659 29.8219 19.5932 30.039 19.4935C30.2171 19.427 30.3666 19.2978 30.461 19.1288C30.6105 18.7952 30.6674 18.4255 30.6255 18.0608V11.9869C30.6516 11.6096 30.5998 11.2308 30.4736 10.8755C30.41 10.7687 30.3246 10.6773 30.2234 10.6076C30.1221 10.5378 30.0074 10.4915 29.8871 10.4718L29.6677 10.4153C29.568 10.4007 29.4767 10.3499 29.4103 10.272C29.3481 10.2038 29.3134 10.1138 29.3132 10.0202C29.316 9.94509 29.3377 9.87198 29.3761 9.80806C29.4146 9.74414 29.4685 9.69158 29.5327 9.65555L32.402 7.80171C32.4481 7.76253 32.5068 7.74238 32.5665 7.74527C32.7691 7.75833 32.883 7.89726 32.9041 8.19244Z" fill="#00284F"/>
      <path d="M42.5077 0.503552V18.1779C42.5044 18.3944 42.5185 18.6108 42.5499 18.8248C42.5706 18.9494 42.6031 19.0715 42.647 19.1895C42.7529 19.3584 42.8977 19.4978 43.0684 19.5955C43.2391 19.6932 43.4306 19.746 43.6259 19.7496C44.0099 19.806 44.1998 19.9579 44.1998 20.1837C44.1998 20.4095 43.993 20.5744 43.5753 20.5744H39.1532C38.7524 20.5744 38.554 20.4355 38.554 20.1403C38.554 19.8451 38.7439 19.7756 39.1279 19.7061C39.3157 19.6559 39.4981 19.5861 39.6722 19.4978C39.8262 19.426 39.9513 19.3018 40.0266 19.1461C40.1772 18.8036 40.2341 18.4253 40.1912 18.052V4.02888C40.1942 3.91089 40.1843 3.79294 40.1617 3.67722C40.1541 3.46266 40.0761 3.25706 39.9405 3.09388C39.8049 2.9307 39.6197 2.81955 39.4148 2.77852L39.2291 2.72207C39.1808 2.72043 39.1332 2.70882 39.0892 2.68795C39.0452 2.66707 39.0057 2.63734 38.9731 2.60052C38.9404 2.5637 38.9153 2.52053 38.8991 2.47355C38.883 2.42658 38.8761 2.37675 38.8789 2.327C38.8874 2.24961 38.9146 2.17566 38.9581 2.11193C39.0016 2.04821 39.06 1.99675 39.1279 1.96231L42.0183 0.112816C42.0356 0.0940975 42.0566 0.0793876 42.0799 0.0696568C42.1031 0.0599264 42.1282 0.0553956 42.1533 0.0563746C42.3558 0.0563746 42.474 0.203986 42.5077 0.503552Z" fill="#00284F"/>
      <path d="M52.8415 13.3329L52.5419 11.2577C52.4815 10.5107 52.1851 9.80472 51.6979 9.2475C51.1739 8.8042 50.5057 8.58226 49.8287 8.62669C49.2456 8.63699 48.6709 8.77146 48.1408 9.02175C47.5652 9.28386 47.0493 9.66684 46.626 10.1462C46.4108 10.3677 46.2378 10.4805 46.107 10.4805C46.0588 10.4878 46.0096 10.4834 45.9634 10.4677C45.9172 10.452 45.8751 10.4253 45.8407 10.3898C45.8063 10.3544 45.7804 10.3112 45.765 10.2636C45.7498 10.216 45.7455 10.1654 45.7526 10.1158C45.7621 10.0345 45.7911 9.95697 45.837 9.8901C45.8919 9.79888 45.9466 9.71206 46.0015 9.6383C46.5553 8.97561 47.2497 8.45278 48.0311 8.11002C48.8292 7.74961 49.6913 7.5633 50.5628 7.56304C51.6509 7.50135 52.7248 7.83991 53.5925 8.51814C54.379 9.23903 54.8668 10.2428 54.9554 11.3228L55.8162 17.7439C55.8526 18.2875 55.9962 18.8178 56.2382 19.3025C56.3109 19.4473 56.4202 19.5693 56.5546 19.6557C56.689 19.742 56.8435 19.7895 57.0019 19.7931C57.1495 19.7972 57.2954 19.7596 57.4239 19.6846C57.5314 19.6289 57.6187 19.5391 57.6728 19.4284L57.8078 19.1506C57.8078 19.0941 57.8627 19.0638 57.9724 19.0638C58.0821 19.0638 58.2171 19.194 58.2171 19.4588C58.2111 19.6778 58.1515 19.8916 58.0438 20.0806C57.9361 20.2695 57.7838 20.4275 57.6011 20.5399C57.1519 20.8423 56.6227 20.994 56.0863 20.974C55.0314 20.974 54.3042 20.5717 53.9048 19.7671C53.8161 19.563 53.7402 19.4588 53.6853 19.4588L53.5798 19.5153C52.4659 20.4579 51.0641 20.9653 49.6219 20.948C48.9523 20.9547 48.2866 20.8401 47.6556 20.6094C47.0868 20.4007 46.5604 20.0857 46.1028 19.6802C45.6672 19.2874 45.314 18.8073 45.0648 18.2692C44.8125 17.7273 44.6826 17.1336 44.6851 16.5326C44.6819 15.9649 44.8121 15.4049 45.0648 14.9002C45.3213 14.3943 45.6794 13.9504 46.1155 13.5978C46.5916 13.2187 47.1266 12.9251 47.6978 12.7294C48.3352 12.508 49.0041 12.398 49.6768 12.4039C49.9586 12.4031 50.2403 12.4176 50.5207 12.4472C50.7616 12.4761 50.9991 12.5299 51.2295 12.6079C51.4574 12.6861 51.7022 12.7815 51.968 12.8987C52.2667 13.0267 52.5583 13.1717 52.8415 13.3329ZM53.4153 17.3098L52.9933 14.5615C52.6095 14.1524 52.1598 13.8146 51.6642 13.563C51.1965 13.3453 50.688 13.2357 50.1746 13.2418C49.7564 13.2276 49.3397 13.2998 48.9491 13.4541C48.5584 13.6085 48.2018 13.8418 47.9003 14.1404C47.6002 14.4367 47.3642 14.7947 47.2079 15.1913C47.0516 15.5878 46.9784 16.0138 46.9931 16.4414C46.9902 16.9093 47.0792 17.3731 47.2548 17.8047C47.4229 18.2196 47.6697 18.5959 47.9805 18.9118C48.288 19.2259 48.6501 19.4778 49.048 19.6542C49.4642 19.8362 49.9124 19.9278 50.3645 19.9234C50.767 19.9261 51.1678 19.8691 51.5545 19.7541C51.9026 19.6602 52.2353 19.5139 52.5419 19.3199C52.8106 19.1488 53.0396 18.919 53.2127 18.647C53.3712 18.4072 53.4578 18.1249 53.4617 17.8351C53.4664 17.7512 53.4664 17.6671 53.4617 17.5833C53.4448 17.4964 53.4321 17.4139 53.4153 17.3098Z" fill="#00284F"/>
      <path d="M64.8544 16.8973V3.36905C64.8951 2.82109 64.8213 2.27054 64.6393 1.754C64.5483 1.60959 64.4229 1.49126 64.2753 1.41003C64.1277 1.32881 63.9628 1.28733 63.7955 1.28946C63.6134 1.29241 63.434 1.24438 63.2764 1.15053C63.2278 1.1048 63.1902 1.048 63.1668 0.984671C63.1434 0.921343 63.1347 0.853251 63.1414 0.785841C63.1414 0.486272 63.3692 0.351685 63.8248 0.351685H68.3945C68.8501 0.351685 69.0786 0.503638 69.0786 0.785841C69.0856 0.851767 69.0767 0.918554 69.0525 0.980012C69.0283 1.04148 68.9888 1.09564 68.9392 1.1375C68.7884 1.22391 68.6217 1.27576 68.4498 1.28946C68.2666 1.30069 68.0871 1.34325 67.9178 1.41536C67.7785 1.48254 67.6665 1.59773 67.6016 1.74097C67.5176 1.93598 67.4673 2.14465 67.4539 2.35747C67.4221 2.68347 67.4081 3.01105 67.4113 3.33866V8.00147C67.3788 8.2851 67.4527 8.5709 67.6181 8.80032C67.8428 8.96734 68.1196 9.04175 68.3945 9.00868H77.7242C78.0042 9.03874 78.2855 8.96484 78.5171 8.80032C78.6972 8.55121 78.7761 8.23975 78.7366 7.93197V3.33866C78.778 2.79601 78.7029 2.25068 78.5171 1.74097C78.4223 1.60302 78.295 1.49128 78.148 1.41558C78.001 1.33987 77.8381 1.30253 77.6733 1.30682C77.2514 1.30682 77.0197 1.12013 77.0197 0.803198C77.0197 0.486269 77.2476 0.369048 77.7032 0.369048H82.3696C82.8215 0.369048 83.0493 0.521001 83.0493 0.803198C83.0493 1.0854 82.8425 1.28945 82.4206 1.30682C82.222 1.29334 82.0241 1.34269 81.8536 1.44824C81.683 1.55378 81.5481 1.71048 81.4666 1.89727C81.3947 2.06603 81.3534 2.24705 81.3445 2.43128C81.3445 2.61796 81.3445 2.9349 81.3445 3.38642V17.5051C81.3445 17.9914 81.3445 18.3169 81.3699 18.4732C81.3928 18.6496 81.4297 18.8239 81.4794 18.9942C81.5436 19.1737 81.6639 19.3264 81.8211 19.4284C82.0069 19.5169 82.2048 19.5741 82.4078 19.5977C82.8297 19.5977 83.0366 19.7844 83.0366 20.1013C83.0366 20.4182 82.817 20.5354 82.3824 20.5354H77.6777C77.2259 20.5354 76.9981 20.3835 76.9981 20.1013C76.9981 19.8192 77.2138 19.6151 77.6523 19.5977C77.819 19.5967 77.9832 19.5539 78.1302 19.473C78.2772 19.392 78.4032 19.2754 78.4961 19.1332C78.6915 18.6198 78.7704 18.0676 78.7284 17.5181V11.3141C78.7653 11.0225 78.6959 10.7272 78.5343 10.4848C78.2893 10.3302 78.001 10.2659 77.7159 10.3025H68.3945C68.1215 10.2717 67.8466 10.3409 67.6181 10.4978C67.4527 10.7336 67.3801 11.0254 67.4158 11.3141V18.0782C67.4158 18.2316 67.4158 18.3575 67.4158 18.4559C67.4158 18.5601 67.4158 18.6469 67.4412 18.7251C67.452 18.8021 67.4749 18.8768 67.5087 18.9465C67.571 19.1349 67.6907 19.2975 67.8504 19.4095C68.0108 19.5215 68.2017 19.5769 68.3945 19.5673C68.5758 19.5802 68.7528 19.6319 68.9138 19.7193C68.9621 19.7621 69.0003 19.8165 69.0238 19.8778C69.0474 19.9391 69.0557 20.0054 69.0487 20.071C69.0487 20.3705 68.8208 20.5051 68.3652 20.5051H63.7535C63.3313 20.5051 63.095 20.3531 63.095 20.071C63.0872 20.0042 63.0946 19.9366 63.1165 19.8732C63.1385 19.81 63.1745 19.7528 63.2215 19.7062C63.3719 19.6098 63.5466 19.5614 63.7236 19.5673C63.8941 19.5731 64.064 19.5368 64.218 19.4612C64.372 19.3857 64.5063 19.2732 64.61 19.1332C64.8028 18.6802 64.883 18.1846 64.8417 17.6918V16.9016L64.8544 16.8973Z" fill="#00284F"/>
      <path d="M86.163 15.2996C85.9479 15.3735 85.8385 15.4603 85.8385 15.5514C85.8811 15.8622 85.9753 16.1633 86.1166 16.4414C86.5245 17.4074 87.1742 18.2447 87.9989 18.8684C88.76 19.4381 89.6776 19.7424 90.6188 19.7367C91.2826 19.7338 91.9361 19.5748 92.5305 19.2721C93.1617 18.9532 93.7262 18.5108 94.1933 17.9696C94.2518 17.8878 94.3263 17.8198 94.4122 17.7699C94.4714 17.7375 94.5356 17.7182 94.6025 17.7135C94.8385 17.7135 94.9569 17.8481 94.9569 18.1086C94.9467 18.249 94.9003 18.3841 94.822 18.4993C94.2556 19.2812 93.4965 19.8929 92.6234 20.2707C91.7019 20.6983 90.7022 20.9188 89.691 20.9176C88.7937 20.9273 87.9035 20.75 87.0749 20.3966C86.2928 20.068 85.5846 19.5784 84.9934 18.9581C84.4016 18.3377 83.9395 17.5995 83.636 16.7888C82.9965 15.0744 82.9774 13.1809 83.5806 11.453C83.8511 10.6865 84.2635 9.98158 84.7961 9.37776C85.3173 8.79534 85.9473 8.32724 86.6486 8.00147C87.3823 7.66364 88.1777 7.49183 88.9821 7.49787C89.8635 7.48776 90.734 7.70413 91.5136 8.12741C92.3128 8.56979 93.0071 9.18791 93.5474 9.9378C93.9286 10.4551 94.2582 11.0108 94.5306 11.5963C94.6381 11.834 94.703 12.09 94.7202 12.3517C94.7246 12.4287 94.7024 12.5047 94.6578 12.5665C94.6126 12.6284 94.5484 12.6722 94.4758 12.6904L86.163 15.2996ZM85.6946 14.4009C85.7825 14.3897 85.8677 14.3602 85.9441 14.3141L91.8935 12.5341C92.113 12.4776 92.2225 12.3734 92.2225 12.2258C92.2116 12.0781 92.183 11.9323 92.1378 11.7916C92.0831 11.5963 92.0118 11.3575 91.9227 11.1317C91.7057 10.5445 91.3589 10.0169 90.9103 9.59052C90.5902 9.26613 90.2116 9.0098 89.7947 8.83622C89.3786 8.66264 88.9331 8.57523 88.4838 8.57891C88.0441 8.56545 87.6075 8.66474 87.2143 8.86785C86.821 9.07096 86.4831 9.37153 86.2305 9.74244C85.6266 10.685 85.3306 11.8015 85.3866 12.9291C85.3815 13.2871 85.4095 13.6448 85.4713 13.9972C85.5387 14.2707 85.6106 14.4009 85.6946 14.4009Z" fill="#00284F"/>
      <path d="M98.6866 0.447147V18.1042C98.6816 18.3207 98.6956 18.5372 98.7293 18.751C98.7484 18.8754 98.7796 18.9975 98.8222 19.1158C98.9297 19.2842 99.0755 19.4234 99.2466 19.5217C99.4172 19.6199 99.6094 19.6742 99.8047 19.6801C100.189 19.7366 100.379 19.8842 100.379 20.1143C100.379 20.3444 100.168 20.5094 99.75 20.5094H95.3324C94.9315 20.5094 94.7329 20.3661 94.7329 20.0752C94.7329 19.7844 94.9232 19.7149 95.3025 19.641C95.4921 19.5901 95.676 19.5188 95.851 19.4283C96.0037 19.3541 96.1278 19.2305 96.2055 19.0767C96.3563 18.7342 96.4129 18.3559 96.3703 17.9826V3.97247C96.3709 3.85457 96.3614 3.73685 96.341 3.6208C96.3327 3.40648 96.2545 3.20128 96.1189 3.03825C95.9834 2.87522 95.7982 2.76386 95.5939 2.72211L95.4081 2.66567C95.3597 2.66459 95.3126 2.65352 95.2687 2.63311C95.2248 2.6127 95.1854 2.58338 95.1523 2.5469C95.1198 2.51043 95.0944 2.46754 95.0785 2.42081C95.0619 2.37408 95.0549 2.32446 95.0581 2.27493C95.0657 2.19732 95.0925 2.12293 95.1351 2.05849C95.1777 1.99406 95.2356 1.94161 95.3025 1.9059L98.1973 0.0564043C98.2145 0.0374559 98.2355 0.0225887 98.259 0.0128406C98.2819 0.00309244 98.3074 -0.00129726 98.3322 -3.11459e-05C98.5307 -3.11459e-05 98.6491 0.14758 98.6866 0.447147Z" fill="#00284F"/>
      <path d="M104.852 14.2707L103.489 13.7931C101.801 13.2142 100.964 12.2504 100.978 10.9016C100.979 10.4495 101.082 10.0037 101.278 9.59917C101.475 9.19183 101.754 8.83221 102.096 8.54418C102.463 8.24303 102.879 8.01078 103.324 7.8582C103.826 7.68489 104.352 7.59971 104.881 7.6064C105.078 7.6064 105.251 7.6064 105.4 7.6064C105.55 7.615 105.7 7.6339 105.848 7.66284C106.023 7.68403 106.198 7.71593 106.371 7.75832L107.122 7.98414L107.489 8.09701C107.547 8.11329 107.606 8.12202 107.666 8.12307C107.797 8.12307 107.923 8.00146 108.05 7.75832C108.09 7.65975 108.146 7.5688 108.215 7.48919C108.273 7.45737 108.339 7.44378 108.405 7.45008C108.496 7.44411 108.586 7.46846 108.662 7.51958C108.77 7.62838 108.859 7.75629 108.923 7.89732L110.396 10.6498L110.493 10.8452C110.515 10.8897 110.528 10.9385 110.531 10.9885C110.531 11.1752 110.434 11.2663 110.232 11.2663C110.111 11.2688 109.992 11.2357 109.89 11.1708C109.752 11.0604 109.628 10.9319 109.523 10.7888C108.948 10.0843 108.244 9.50303 107.451 9.07817C106.749 8.67517 105.963 8.45316 105.16 8.43131C104.625 8.41608 104.101 8.58408 103.67 8.90886C103.482 9.03932 103.328 9.2152 103.221 9.421C103.115 9.62686 103.059 9.85648 103.058 10.0898C103.055 10.3034 103.101 10.5148 103.193 10.7063C103.304 10.9155 103.463 11.0931 103.657 11.2229C103.937 11.4172 104.233 11.583 104.544 11.7178C104.915 11.8828 105.388 12.0738 105.923 12.2779L107.531 12.8683C109.025 13.4125 110.084 13.9913 110.708 14.605C111.02 14.9095 111.265 15.2787 111.427 15.6882C111.59 16.0976 111.665 16.5379 111.649 16.9797C111.654 17.5205 111.548 18.0563 111.337 18.5514C111.134 19.0297 110.832 19.4565 110.451 19.8018C110.054 20.1566 109.596 20.432 109.101 20.6136C108.559 20.8125 107.988 20.9125 107.413 20.9088C106.507 20.8836 105.608 20.7377 104.738 20.4747L104.261 20.3488C104.227 20.3509 104.194 20.3401 104.168 20.3184C104.147 20.3035 104.122 20.2945 104.096 20.2924C103.97 20.2924 103.827 20.4226 103.674 20.6831C103.634 20.7754 103.573 20.8571 103.497 20.9219C103.433 20.9557 103.362 20.9707 103.29 20.9653C103.2 20.9713 103.109 20.947 103.033 20.8959C102.922 20.7926 102.826 20.6743 102.746 20.5442L100.565 17.2316C100.431 17.0964 100.345 16.9192 100.32 16.7279C100.313 16.6784 100.317 16.6278 100.332 16.5802C100.348 16.5326 100.374 16.4894 100.408 16.454C100.442 16.4185 100.484 16.3918 100.531 16.3761C100.577 16.3604 100.626 16.356 100.674 16.3633C100.834 16.3633 101.037 16.5196 101.273 16.8408C101.554 17.1565 101.86 17.4471 102.189 17.7092C102.67 18.1231 103.183 18.5341 103.729 18.9421C104.189 19.3019 104.706 19.578 105.256 19.7584C105.793 19.941 106.354 20.0362 106.919 20.0406C107.569 20.0753 108.207 19.848 108.695 19.4067C108.909 19.1912 109.075 18.9315 109.183 18.6449C109.292 18.3581 109.34 18.0511 109.324 17.7439C109.339 17.4534 109.295 17.1629 109.197 16.8904C109.098 16.6178 108.946 16.369 108.751 16.1592C108.611 16.0105 108.455 15.8793 108.286 15.7685C108.068 15.627 107.841 15.4994 107.607 15.3864C107.333 15.2562 107.004 15.1172 106.624 14.9523L104.852 14.2707Z" fill="#00284F"/>
      <path d="M120.624 13.2765L120.325 11.2012C120.261 10.455 119.965 9.74997 119.481 9.19104C118.95 8.75155 118.278 8.53584 117.599 8.58762C117.016 8.59713 116.441 8.73167 115.911 8.98268C115.336 9.24518 114.82 9.62817 114.397 10.1072C114.177 10.3286 114.004 10.4415 113.877 10.4415C113.829 10.4487 113.78 10.4443 113.733 10.4286C113.688 10.4128 113.646 10.3862 113.611 10.3508C113.576 10.3153 113.551 10.2721 113.536 10.2245C113.52 10.1769 113.516 10.1263 113.523 10.0767C113.532 9.99619 113.56 9.91902 113.603 9.85097C113.658 9.75981 113.712 9.67732 113.768 9.59916C114.324 8.93734 115.02 8.4147 115.802 8.07095C116.606 7.70719 117.475 7.52082 118.354 7.5239C119.441 7.46254 120.513 7.8011 121.379 8.47908C122.169 9.19813 122.658 10.2027 122.747 11.2837L123.62 17.6874C123.657 18.2296 123.801 18.7584 124.042 19.2417C124.114 19.3874 124.223 19.5102 124.358 19.5973C124.492 19.6845 124.647 19.7326 124.806 19.7367C124.954 19.7392 125.1 19.7002 125.228 19.6238C125.335 19.5694 125.422 19.4791 125.472 19.3676L125.612 19.0898C125.612 19.0333 125.667 19.003 125.772 19.003C125.878 19.003 126.021 19.1375 126.021 19.398C126.015 19.617 125.955 19.8308 125.848 20.0198C125.74 20.2088 125.588 20.3667 125.405 20.4791C124.956 20.7809 124.426 20.9326 123.89 20.9132C122.835 20.9132 122.108 20.5109 121.709 19.7063C121.616 19.5022 121.544 19.398 121.489 19.398L121.379 19.4545C120.268 20.3978 118.867 20.9054 117.426 20.8872C116.756 20.8943 116.091 20.7796 115.459 20.5485C114.891 20.3399 114.364 20.0249 113.907 19.6194C113.47 19.2274 113.117 18.7471 112.869 18.2084C112.613 17.6677 112.481 17.0734 112.485 16.4718C112.481 15.9036 112.613 15.3431 112.869 14.8394C113.125 14.3334 113.483 13.8894 113.919 13.5369C114.395 13.1562 114.93 12.8624 115.502 12.6686C116.139 12.4469 116.808 12.3368 117.481 12.343C117.762 12.3424 118.044 12.3569 118.325 12.3865C118.565 12.4153 118.803 12.4691 119.034 12.5471C119.262 12.6252 119.506 12.7207 119.772 12.838C120.063 12.9681 120.348 13.1144 120.624 13.2765ZM121.198 17.262L120.776 14.5138C120.392 14.1046 119.942 13.7668 119.447 13.5153C118.978 13.297 118.468 13.1873 117.953 13.194C117.535 13.1808 117.119 13.2534 116.728 13.4077C116.337 13.5621 115.981 13.7949 115.679 14.0926C115.38 14.3893 115.144 14.7475 114.989 15.144C114.833 15.5405 114.761 15.9664 114.776 16.3937C114.773 16.8524 114.858 17.3071 115.027 17.7314C115.197 18.1556 115.447 18.5407 115.763 18.864C116.069 19.1805 116.432 19.4327 116.831 19.6064C117.247 19.7884 117.695 19.88 118.147 19.8756C118.55 19.8778 118.95 19.8208 119.337 19.7063C119.685 19.6104 120.018 19.4642 120.325 19.2721C120.593 19.0994 120.823 18.8682 120.996 18.5948C121.153 18.3549 121.238 18.0725 121.241 17.783C121.245 17.6991 121.245 17.6151 121.241 17.5312C121.228 17.4443 121.215 17.3575 121.198 17.262Z" fill="#00284F"/>
    </g>
    <defs>
      <clipPath id="clip0_1_1048">
        <rect width="126" height="21" fill="white"/>
      </clipPath>
    </defs>
  </svg>
